<svg xmlns="http://www.w3.org/2000/svg" width="59.465" height="59.465" xmlns:v="https://vecta.io/nano"><path d="M58.862 33.886L45.045 20.07v-9.112c0-1.136-.92-2.056-2.056-2.056s-2.057.92-2.057 2.056v5L31.185 6.2c-.8-.803-2.104-.803-2.905 0L.603 33.886C-.2 34.7-.2 36 .603 36.793s2.104.803 2.907 0L29.732 10.57l26.223 26.223a2.07 2.07 0 0 0 1.455.604c.522 0 1.05-.2 1.452-.604.803-.805.803-2.104 0-2.907zm-5.882 2.36L31.185 14.45c-.385-.385-.908-.602-1.454-.602s-1.068.217-1.453.602L6.484 36.245a2.04 2.04 0 0 0-.565 1.062 5.05 5.05 0 0 0-.09.942v10.638a4.98 4.98 0 0 0 4.969 4.971h10.638a4.97 4.97 0 0 0 3.645-1.6 4.95 4.95 0 0 0 1.324-3.373v-7.812c0-1.896 1.453-3.48 3.33-3.658 1.878.178 3.33 1.762 3.33 3.658v7.812c0 1.252.472 2.45 1.324 3.373a4.98 4.98 0 0 0 3.646 1.599h10.638a4.98 4.98 0 0 0 4.971-4.972V38.252a4.91 4.91 0 0 0-.092-.941 2.06 2.06 0 0 0-.573-1.066z"/></svg>