<svg xmlns="http://www.w3.org/2000/svg" viewBox="0 0 209.281 209.281" xmlns:v="https://vecta.io/nano"><path d="M203.456 139.065c3.768-10.786 5.824-22.37 5.824-34.425s-2.056-23.64-5.824-34.425c-.092-.324-.2-.64-.333-.944C188.59 28.926 149.932 0 104.64 0S20.692 28.926 6.16 69.27c-.132.305-.242.62-.333.944C2.058 81 .002 92.584.002 104.64s2.056 23.64 5.824 34.425c.092.324.2.64.333.944 14.534 40.346 53.19 69.27 98.482 69.27s83.948-28.926 98.482-69.27a7.48 7.48 0 0 0 .333-.944zM104.64 194.28c-3.985 0-10.4-7.212-15.78-23.324-2.592-7.775-4.667-16.713-6.18-26.436H126.6c-1.512 9.723-3.587 18.66-6.178 26.436-5.37 16.112-11.796 23.324-15.78 23.324zm-23.78-64.76a277.89 277.89 0 0 1-1.102-24.881 277.89 277.89 0 0 1 1.102-24.881h47.557a277.89 277.89 0 0 1 1.102 24.881 277.89 277.89 0 0 1-1.102 24.881H80.862zM15 104.64a89.38 89.38 0 0 1 3.516-24.881h47.3c-.7 8.163-1.057 16.53-1.057 24.88s.355 16.718 1.057 24.88h-47.3C16.23 121.618 15 113.27 15 104.64zM104.64 15c3.985 0 10.41 7.212 15.78 23.324 2.59 7.775 4.667 16.713 6.178 26.435H82.68c1.512-9.723 3.587-18.66 6.18-26.435C94.23 22.212 100.656 15 104.64 15zm38.823 64.76h47.3a89.38 89.38 0 0 1 3.516 24.881 89.38 89.38 0 0 1-3.516 24.881h-47.3c.7-8.163 1.057-16.53 1.057-24.88s-.356-16.718-1.057-24.88zm41.44-15h-43.16c-2.668-18.397-7.245-34.902-13.666-46.644 24.895 6.75 45.52 23.98 56.826 46.644zm-103.7-46.645c-6.42 11.742-10.998 28.247-13.666 46.645h-43.16c11.307-22.664 31.93-39.895 56.826-46.645zM24.378 144.52h43.16c2.668 18.397 7.245 34.902 13.666 46.645-24.895-6.75-45.52-23.98-56.826-46.645zm103.7 46.645c6.42-11.742 10.998-28.247 13.666-46.645h43.16c-11.306 22.665-31.93 39.895-56.826 46.645z"/></svg>